<?xml version="1.0" standalone="no"?>
<!DOCTYPE svg PUBLIC "-//W3C//DTD SVG 1.1//EN" "http://www.w3.org/Graphics/SVG/1.1/DTD/svg11.dtd" >
<svg>
<metadata>
Created by FontForge 20110222 at Mon Mar  7 04:03:52 2011
 By www-data
Generated by Fontographer 3.5 from StarTrek canon sources - this is charityware; if you find this worthwhile, please give more to charity.   by " tommy" of escondido.
</metadata>
<defs>
<font id="Cardassian--StarTrekcanonbased" horiz-adv-x="428" >
  <font-face 
    font-family="StarTrek Cardassian "
    font-weight="400"
    font-stretch="normal"
    units-per-em="1000"
    panose-1="0 0 0 0 0 0 0 0 0 0"
    ascent="800"
    descent="-200"
    x-height="404"
    cap-height="796"
    bbox="-31 -23 1265 800"
    underline-thickness="20"
    underline-position="-123"
    unicode-range="U+0020-007D"
  />
    <missing-glyph />
    <glyph glyph-name="space" unicode=" " horiz-adv-x="500" 
 />
    <glyph glyph-name="exclam" unicode="!" horiz-adv-x="884" 
d="M706 306q0 -139 -107 -234t-252 -95q-139 0 -234 107t-95 252q0 139 107 232t252 93q139 0 234 -105t95 -250zM682 308q0 134 -87 230q-90 99 -220 99q-135 0 -234 -86.5t-99 -216.5q0 -134 88.5 -233.5t218.5 -99.5q134 0 233.5 88.5t99.5 218.5zM484 353q1 -3 97.5 -4
t119.5 -1h40h34h28h23h18h15h11h24.5t13.5 1q4 -4 5 -6q5 -7 5 -14q0 -9 -10 -16h-131.5t-182.5 -0.5t-106 -3.5q-4 -36 -29.5 -65t-62.5 -39q-13 -4 -31 -4q-42 0 -74.5 25.5t-42.5 66.5q-3 15 -3 29q0 40 23.5 72t63.5 43q18 5 34 5q41 0 74.5 -24.5t43.5 -64.5z" />
    <glyph glyph-name="numbersign" unicode="#" horiz-adv-x="804" 
d="M590 734q-7 -24 -26.5 -40t-39.5 -16q-4 0 -12 2q-31 12 -48.5 45.5t-17.5 64.5q16 -2 26 -4q29 -6 50 -14.5t45 -20.5t23 -17zM784 396q0 -78 -32 -147t-88 -125v548q56 -56 88 -126.5t32 -149.5zM336 798q-8 -47 -23.5 -72.5t-38.5 -39.5q-8 -5 -17 -5q-13 0 -28 9.5
t-33 27.5q-3 3 16 21t37 30t55 22q11 3 32 7zM620 80q-21 34 -48 58q-35 31 -65 31q-32 0 -55 -35q-27 -41 -40 -130v796q22 -76 53 -112q27 -32 61 -32q26 0 50.5 19.5t43.5 52.5v-648zM358 800v-790q-18 91 -39.5 127t-49.5 36q-21 0 -51 -23l-50 -42v598q45 -46 83 -46
q36 0 65 41q24 35 42 99zM596 64q2 -4 -29 -23q-14 -8 -30.5 -18.5t-56.5 -15.5q-13 -1 -38 -3q4 40 16 70q17 42 46 60q5 3 9 3q18 0 43.5 -23.5t39.5 -49.5zM140 126q-47 44 -89 128q-45 89 -45 150q0 62 36 147q42 98 98 125v-550zM330 18q-20 4 -31 6q-35 8 -51 18
q-20 13 -39 29q-22 19 -19 23q22 25 37 37q20 16 35 16q6 0 12 -3q29 -18 44 -59q12 -32 12 -67z" />
    <glyph glyph-name="dollar" unicode="$" horiz-adv-x="748" 
d="M720 396q0 -68 -33 -110q-21 -27 -93 -80l-1 386q61 -40 92 -84q35 -50 35 -112zM563 76q-6 9 -33 64q-18 37 -29 37q-13 0 -24.5 -34t-24.5 -123v770q25 -86 37 -115t24 -29q9 0 25 28.5t25 43.5v-642zM414 156q0 -6 -19.5 -14t-36.5 -8q-20 0 -43 8t-23 14v540
q0 5 23 12.5t41 7.5q15 0 38 -10q7 -3 20 -10v-540zM266 14q-19 95 -28.5 126t-20.5 31q-6 0 -17 -16q-30 -45 -46 -57v610q48 -51 68 -51q14 0 23 34q10 45 21 90v-767zM126 610v-390q-63 44 -87 77q-35 48 -35 121t26 111q21 31 96 81z" />
    <glyph glyph-name="percent" unicode="%" horiz-adv-x="1300" 
d="M501 796q9 0 12 -6q16 -28 33 -55q41 -64 88 -116q63 -71 120 -100q29 -15 56 -15q34 0 84 31l64 40q8 1 10 1l284 -84q11 -3 11 -12t-12 -12l-197 -57l2 -17l198 -58q11 -3 11 -12t-12 -12l-283 -52l-8 1q-62 37 -97 37q-22 0 -43.5 -11.5t-56.5 -38t-99 -88.5
q-55 -53 -105 -104q-25 -26 -49 -51q-3 -5 -11 -5q-146 0 -247 66q-109 71 -109 186q-66 8 -100.5 44.5t-34.5 94.5q0 62 33 100q37 42 102 52q0 114 109 186q102 67 247 67zM495 771q-136 0 -227 -62q-98 -66 -98 -177q0 -12 -12 -12q-42 -7 -62 -18q-62 -33 -62 -109
q0 -73 61 -102q20 -9 62 -15q13 0 13 -12q0 -110 99 -177q92 -63 227 -63q24 32 106 115q93 94 142 129q39 29 67.5 42t54.5 13q38 0 105 -38l227 42l-156 45q-7 1 -9 10l-5 36q-2 11 9 14l166 48l-238 70q-34 -20 -67 -40q-54 -31 -90 -31q-28 0 -66 18q-61 31 -125 103
t-122 171zM484 712q53 -81 121 -150q63 -64 119 -90q-80 8 -146.5 15t-178.5 21l-30 82q-26 24 -38 36l-34 38q38 19 89.5 33.5t97.5 14.5zM281 650l70 -72l24 -70l-58 -2l-76 -34l-16 -30l4 -34l-28 12l-14 28l-34 8l18 -54l-20 -62l30 6l16 38l32 12l-4 -38l16 -36l74 -52
l56 -8q119 12 191 17.5t159 12.5q-48 -31 -129 -101q-77 -67 -97 -91q-121 0 -205 51q-89 54 -89 143q0 9 -11 9q-37 4 -55 12q-56 24 -56 84t56 87q18 8 56 15q14 0 14 15q0 47 19.5 80t56.5 54zM317 444l12 -16l262 -28l-252 -36l-16 -12l-38 12l-14 28l39 -20l30 22v12
l-29 20l-42 -16l20 24zM321 476l398 -30l38 -30v-34l-40 -44l-394 -32l-66 36l-14 22l12 28l24 -44l48 -26l14 26l392 44v16l-394 34l-16 20l-44 -16l-24 -32l-12 26l16 18zM767 464q25 -7 55 -7q14 0 31 3q-2 -8 -3 -16q-8 -18 -17 -24v-40q13 -7 22 -21q1 -5 2 -9
q-21 0 -45.5 -8t-48.5 -20q6 14 11.5 26t18.5 34v38q-11 15 -16 24t-10 20zM973 494l-82 -68v-34l80 -68l-72 22l-44 46v24l42 54zM1001 510l150 -30l-134 -28l-34 -44l28 -46l124 -30l-142 -16q0 34 -22 60q-11 13 -37 25q-8 4 -25 9q17 5 26 8q27 11 41 26.5t19.5 29
t5.5 36.5zM494 244q-26 -10 -26 -40q0 -8 3 -14q9 -21 34 -21q8 0 17 3q25 10 25 36q0 6 -3 14q-10 25 -36 25q-6 0 -14 -3z" />
    <glyph glyph-name="ampersand" unicode="&#x26;" horiz-adv-x="724" 
d="M422 620h-134v110h134v-110zM676 420l-238 -350l-70 360v92l36 -58l26 48v36h14v-36l-15 -27q-15 -27 -13 -29q6 -4 24.5 -11t21.5 -7l42 360l10 -340l94 66l40 188zM346 428l-70 -360l-240 348l40 300l30 -194l94 -66l10 340l42 -360q4 0 21 6.5t25 11.5q3 2 -12 29
q-5 9 -16 27v36h14v-36l26 -48q7 7 14 21q16 31 22 37v-92zM466 0h-20l-12 20h-70l-10 48l-8 -48h-68l-12 -20h-22l14 42h36l56 336h16l54 -328h34z" />
    <glyph glyph-name="comma" unicode="," horiz-adv-x="152" 
d="M120 32h-80v92h80v-92zM113 41v75h-66v-75h66z" />
    <glyph glyph-name="hyphen" unicode="-" horiz-adv-x="564" 
d="M-16 348h596v-36h-596v36z" />
    <glyph glyph-name="period" unicode="." horiz-adv-x="130" 
d="M26 266q-18 17 -18 41q0 20 13 34q17 18 40 18q18 0 35 -14.5t17 -38.5q0 -21 -13 -35q-17 -18 -41 -18q-18 0 -33 13z" />
    <glyph glyph-name="slash" unicode="/" horiz-adv-x="680" 
d="M654 684h-122v72h-180v-64h-184v108h412v-68h74v-48zM468 662q-3 -15 -13.5 -23t-26.5 -8q-7 0 -10 1q-15 4 -24 17t-6 29q3 17 17 26t31 6q16 -3 26 -17t6 -31zM652 450h-484v86h-76v-400h68v-132h-156v658h344v-78h68v-52h184v126h52v-208zM288 4h-64v132h64v-132z" />
    <glyph glyph-name="less" unicode="&#x3c;" horiz-adv-x="312" 
d="M280 0h-80v424h-196v372h168v-292h108v-504z" />
    <glyph glyph-name="greater" unicode="&#x3e;" 
d="M402 4h-310v596h-92v200h264l-2 -204h-92v-488h80v148h152v-252z" />
    <glyph glyph-name="at" unicode="@" horiz-adv-x="884" 
d="M870 336q0 -146 -94.5 -252.5t-234.5 -106.5q-146 0 -251 93q-108 96 -108 236q0 145 95 250t234 105q146 0 250 -91q109 -95 109 -234zM788 316q-13 -105 -96 -183t-180 -78q-43 0 -80 17q-68 31 -115 118q-39 72 -39 121h-71h-79h-98h-52q-9 5 -9 15q0 7 5 15q1 2 6 6
q15 0 54.5 -0.5t92.5 -0.5h29h24h20h17h14q51 0 51 5q0 91 83 158q77 62 161 62q26 0 46 -7q84 -30 150.5 -99t66.5 -135q0 -9 -1 -14zM846 334q0 130 -99 216.5t-234 86.5q-130 0 -218.5 -97.5t-88.5 -231.5q0 -131 98.5 -219t234.5 -88q131 0 219 98.5t88 234.5z" />
    <glyph glyph-name="A" unicode="A" horiz-adv-x="450" 
d="M416 736h-248v-508h92v-228h-260v228h92v572h324v-64zM120 32v92h-80v-92h80z" />
    <glyph glyph-name="B" unicode="B" horiz-adv-x="704" 
d="M664 4h-524v204h432v188h-188v116h-44v220h-220v-68h-120v136h472v-304h192v-492zM68 4l-64 -8v204h64v-196z" />
    <glyph glyph-name="C" unicode="C" horiz-adv-x="536" 
d="M392 796v-304h-388v-488h352v232h-192v164h320v396h-92zM120 32h-80v92h80v-92z" />
    <glyph glyph-name="D" unicode="D" horiz-adv-x="722" 
d="M688 0h-528v224h200v420h-188v152h508v-68h-216v-504h224v-224zM92 8h-92v216h92v-216zM400 36v92h-80v-92h80zM276 32v92h-80v-92h80z" />
    <glyph glyph-name="E" unicode="E" horiz-adv-x="616" 
d="M0 216v-216h560v220h-212v568h-112v-572h-236z" />
    <glyph glyph-name="F" unicode="F" horiz-adv-x="552" 
d="M0 800v-272h100v-524h416v200h-292v408h-112v188h-112z" />
    <glyph glyph-name="G" unicode="G" horiz-adv-x="800" 
d="M748 0h-404v224h196v324h-108v136h-428v116h656v-580h88v-220zM720 28v92h-80v-92h80zM600 28v92h-80v-92h80z" />
    <glyph glyph-name="H" unicode="H" horiz-adv-x="536" 
d="M8 796h476v-192h-164v80h-212v-508h156v-176h-256v796z" />
    <glyph glyph-name="I" unicode="I" horiz-adv-x="392" 
d="M352 0h-216v204h116v288h-120v304h108v-216h112v-580zM68 4h-64v196h64v-196z" />
    <glyph glyph-name="J" unicode="J" horiz-adv-x="712" 
d="M652 4v200h-144v180h-164v268h168v140h-504v-788h644zM120 32h-80v92h80v-92z" />
    <glyph glyph-name="K" unicode="K" horiz-adv-x="372" 
d="M17 204v-204h311v580h-161v216h-156v-304h173v-288h-167zM292 28h-80v92h80v-92zM184 28h-80v92h80v-92z" />
    <glyph glyph-name="L" unicode="L" horiz-adv-x="305" 
d="M278 0h-260v200h92v536h-108v64h184v-556h92v-244z" />
    <glyph glyph-name="M" unicode="M" horiz-adv-x="452" 
d="M384 4h-384v224h156v568h116v-416h112v-376zM244 36v92h-80v-92h80zM120 32v92h-80v-92h80z" />
    <glyph glyph-name="N" unicode="N" horiz-adv-x="736" 
d="M680 4h-416v208h300v368h-560v212h180v-116h496v-672z" />
    <glyph glyph-name="O" unicode="O" horiz-adv-x="624" 
d="M564 468h-212v-212h100v-248h-440v244h212v424h-220v116h356v-188h204v-136zM336 32v92h-80v-92h80zM228 32v92h-80v-92h80zM120 32v92h-80v-92h80z" />
    <glyph glyph-name="P" unicode="P" horiz-adv-x="472" 
d="M400 0h-212v472h-188v324h312v-612h88v-184z" />
    <glyph glyph-name="Q" unicode="Q" horiz-adv-x="632" 
d="M576 632h-224v-200h-224v-220h384v-204h-508v528h196v256h376v-160zM120 32v92h-80v-92h80z" />
    <glyph glyph-name="R" unicode="R" horiz-adv-x="548" 
d="M492 0h-488v260h124v-128h236v408h-360v252h488v-792z" />
    <glyph glyph-name="S" unicode="S" horiz-adv-x="700" 
d="M652 688h-248v-284h-152v-164h248v-240h-500v168h152v336h144v292h356v-108z" />
    <glyph glyph-name="T" unicode="T" horiz-adv-x="456" 
d="M0 800h180v-572h208v-228h-312v436h-76v364z" />
    <glyph glyph-name="U" unicode="U" horiz-adv-x="374" 
d="M315 0h-312v436v360h64v-224h60v-344h188v-228zM120 32v92h-80v-92h80z" />
    <glyph glyph-name="V" unicode="V" horiz-adv-x="519" 
d="M479 0h-92v376h-380v420h188v-216h-76v-120h360v-460z" />
    <glyph glyph-name="W" unicode="W" horiz-adv-x="540" 
d="M512 728h-216v-504h96v-224h-288v224h88v420h-188v152h508v-68zM224 28v92h-80v-92h80z" />
    <glyph glyph-name="X" unicode="X" horiz-adv-x="305" 
d="M263 0h-260l2 240h92v556h76l-2 -552h92v-244z" />
    <glyph glyph-name="Y" unicode="Y" 
d="M412 596h-92l-2 -596h-314v88h132v104h108l-2 408h-92v200h260z" />
    <glyph glyph-name="Z" unicode="Z" horiz-adv-x="608" 
d="M584 400h-88v-400l-494 -1v64h108v536h-92v200h260l2 -199h-92v-272h196v192h72v280h128v-400z" />
    <glyph glyph-name="bracketleft" unicode="[" horiz-adv-x="629" 
d="M596 0h-520v352h-76v224h84v100l60 8v116h120v-184h-80v-408h412v-208z" />
    <glyph glyph-name="bracketright" unicode="]" horiz-adv-x="476" 
d="M456 620h-96v-76h-244v-540h-116v788h360v-72h96v-100z" />
    <glyph glyph-name="a" unicode="a" horiz-adv-x="724" 
d="M684 704h-292l104 -108v-312h-100v-280h-392l-4 188l116 148v-236h172v264h100v212l-224 212h520v-88z" />
    <glyph glyph-name="b" unicode="b" horiz-adv-x="430" 
d="M396 4h-128l-264 228h392v-228z" />
    <glyph glyph-name="c" unicode="c" horiz-adv-x="610" 
d="M572 800l-80 -332h-360v-212h100l220 -256h-448l-4 552h292l212 248h68z" />
    <glyph glyph-name="d" unicode="d" horiz-adv-x="744" 
d="M5 292l5 -284l95 -4zM101 300l104 -296h392l-136 288v240l232 164v100h-576v-88l212 -172v-236h-228z" />
    <glyph glyph-name="e" unicode="e" horiz-adv-x="632" 
d="M236 696l-88 32q-46 -27 -68 -62q-27 -45 -36 -130q-1 -8 -1 -16v-13q0 -80 42 -181q14 -33 43 -86h452l-156 -232h-220q-3 0 -52 78q-60 95 -98 186q-54 129 -54 222q0 31 4 54q18 104 67 166q62 78 165 78v-96z" />
    <glyph glyph-name="f" unicode="f" horiz-adv-x="768" 
d="M716 288l-212 -284h-504l196 288h140q45 53 62.5 106t17.5 126q0 54 -38 124q-27 50 -71 104q-36 44 -39 44h200q39 -58 58 -94q58 -109 58 -182q0 -76 -11 -123.5t-45 -108.5h188z" />
    <glyph glyph-name="g" unicode="g" horiz-adv-x="380" 
d="M236 300h-84l44 104zM344 4h-336l120 244h124z" />
    <glyph glyph-name="h" unicode="h" horiz-adv-x="1000" 
d="M972 796h-968l160 -220v-240h-68v-152l-96 -180h452l-80 180h-136v440l-68 92h804v80z" />
    <glyph glyph-name="i" unicode="i" horiz-adv-x="648" 
d="M8 796l-4 -788h600l-84 148l-160 -80h-256v532l176 188h-272z" />
    <glyph glyph-name="j" unicode="j" horiz-adv-x="472" 
d="M4 796l148 -196v-332h-144l144 -256h124l156 256h-152v288l-40 168l92 72h-328z" />
    <glyph glyph-name="k" unicode="k" 
d="M380 4h-376l136 252h84l56 124l-104 176h-176l232 236v-136l148 -252v-400z" />
    <glyph glyph-name="l" unicode="l" horiz-adv-x="392" 
d="M4 268h120v244l104 136l-164 152h268v-248l-80 -80v-464h-132z" />
    <glyph glyph-name="m" unicode="m" horiz-adv-x="672" 
d="M8 800h272l140 -316v-164h200l-220 -320h-140l-196 320h204v152l-88 224h-172v104z" />
    <glyph glyph-name="n" unicode="n" horiz-adv-x="624" 
d="M0 268l576 528v-132l-372 -352v-108h152l-156 -204z" />
    <glyph glyph-name="o" unicode="o" horiz-adv-x="560" 
d="M504 284l-192 -280h-144l-168 280l140 120h136v-120h228z" />
    <glyph glyph-name="p" unicode="p" horiz-adv-x="508" 
d="M0 384l220 176v108l168 -192l-136 -124l72 -148h144v-200h-292z" />
    <glyph glyph-name="q" unicode="q" horiz-adv-x="628" 
d="M4 796h404v-300l-176 -124v-92h164l188 -276h-444l-140 360l188 148z" />
    <glyph glyph-name="r" unicode="r" horiz-adv-x="896" 
d="M840 792h-832l144 -488h-144l180 -300h224l-208 676h636v112z" />
    <glyph glyph-name="s" unicode="s" horiz-adv-x="736" 
d="M692 0h-92v252h92v-252zM528 0h-384l-144 540l176 256l84 -72l-144 -196l92 -276h320v-252z" />
    <glyph glyph-name="t" unicode="t" horiz-adv-x="724" 
d="M684 4h-520l224 252v164l-100 -68v340h-172v-236l-116 148l4 188h392v-236l100 60v-440l188 -84v-88z" />
    <glyph glyph-name="u" unicode="u" horiz-adv-x="584" 
d="M500 244l-152 -240h-236v372h-112l268 316h-264v108h392v-328h-132v-124h96v-104h140zM488 644q21 0 35.5 -14.5t14.5 -35.5t-14.5 -35.5t-35.5 -14.5t-35.5 14.5t-14.5 35.5t14.5 35.5t35.5 14.5z" />
    <glyph glyph-name="v" unicode="v" horiz-adv-x="672" 
d="M640 796l-72 -132v-328h-116v-332h-444l108 208h208v248h120l-124 200h-320l140 136h500zM280 248q-15 -16 -39 -16q-21 0 -36 14.5t-15 38.5q0 21 14.5 36t38.5 15q21 0 36 -14.5t15 -38.5q0 -21 -14 -35zM158 318q11 -12 11 -32q0 -25 -19 -40q-15 -12 -35 -12
q-26 0 -41 20q-9 12 -9 29q0 26 21 43q12 11 32 11q25 0 40 -19z" />
    <glyph glyph-name="braceleft" unicode="{" horiz-adv-x="592" 
d="M568 708h-216v-476h124v-228h-476v220h108v412h108v160h352v-88zM240 32v92h-80v-92h80zM120 32v92h-80v-92h80z" />
    <glyph glyph-name="braceright" unicode="}" horiz-adv-x="528" 
d="M502 688h-248v-284h-152v-164h72v-240h-172v504h144v292h356v-108z" />
  </font>
</defs>
</svg>
