<?xml version="1.0" standalone="no"?>
<!DOCTYPE svg PUBLIC "-//W3C//DTD SVG 1.1//EN" "http://www.w3.org/Graphics/SVG/1.1/DTD/svg11.dtd" >
<svg>
<metadata>
Created by FontForge 20110222 at Mon Mar  7 11:58:28 2011
 By www-data
Copywrite 1996 "Tommy of Escondido" - this is charityware; if you find it at all worthwhile, please give more to charity.
</metadata>
<defs>
<font id="STCardassian" horiz-adv-x="1024" >
  <font-face 
    font-family="ST Cardassian"
    font-weight="400"
    font-stretch="normal"
    units-per-em="2048"
    panose-1="2 11 5 0 0 0 0 0 0 0"
    ascent="1638"
    descent="-410"
    x-height="827"
    cap-height="1630"
    bbox="-63 -408 2591 1638"
    underline-thickness="50"
    underline-position="-75"
    unicode-range="U+0020-00B6"
  />
    <missing-glyph />
    <glyph glyph-name="grave" unicode="`" horiz-adv-x="2318" 
d="M2249 780q-2 -2 -4 -2q-7 0 -9 8q-4 9 -4 37q0 13 2 36.5t2 31.5q0 51 -36 51q-17 0 -33.5 -14.5t-30.5 -26.5v0q-2 0 -4 2q-2 0 -2 2t2 4q22 19 31 27q16 14 37 14h6q22 0 30 -14q7 -18 7 -62v-49q0 -26 6 -45zM2107 782h-10v148h10v-148zM2044 963l-4 -185h-8l4 185h8z
M2032 860q-7 -39 -35 -59q-23 -17 -47 -17q-11 0 -21 2q-39 7 -59 37q-17 21 -17 45q0 11 2 21q7 39 37 61q21 15 45 15q11 0 21 -2q39 -7 61 -35q15 -23 15 -47q0 -11 -2 -21zM1825 778h-10v180h10v-180zM1741 795q-2 -21 -21 -31q-18 -10 -41 -10h-6q-12 0 -24 6
q-15 8 -29 18l4 8q4 -2 27 -16q12 -8 28 -8q47 0 54 33v4q0 10 -4 18q-9 10 -21 25q-14 14 -47 24q-35 8 -39 31q-2 8 -2 16q0 21 10 37q12 25 41 25h4q15 0 27 -10q14 -15 29 -27l-5 -8q-20 20 -30 28q-13 9 -25 9q-20 0 -33 -23q-8 -16 -10 -35q0 -6 2 -12q4 -18 39 -25
q33 -8 43 -20q19 -25 21 -27q8 -14 10 -22q0 -4 -2 -8zM1577 803q-2 -21 -21 -31q-18 -10 -40 -10h-7q-12 0 -24 6q-15 8 -29 18l4 9q4 -2 27 -17q12 -8 29 -8q47 0 53 33v4q0 10 -4 18q-9 11 -21 25q-14 14 -47 24q-35 9 -39 31q-2 8 -2 17q0 20 10 36q13 25 41 25h4
q15 0 27 -10q14 -15 29 -27l-4 -8q-21 20 -31 29q-12 8 -25 8q-20 0 -32 -23q-9 -16 -11 -34q0 -7 2 -13q4 -18 39 -24q33 -9 43 -21q19 -24 21 -26q8 -15 10 -23q0 -4 -2 -8zM1130 1290q-6 -41 -36 -61q-25 -17 -52 -17q-10 0 -20 2q-41 7 -61 39q-17 23 -17 50q0 10 2 20
q6 41 39 63q23 15 49 15q10 0 21 -2q41 -6 63 -37q15 -23 15 -51q0 -11 -3 -21zM1405 967l-4 -185h-8l4 185h8zM1393 864q-7 -39 -35 -59q-23 -17 -47 -17q-11 0 -21 3q-39 6 -59 36q-17 21 -17 45q0 11 3 21q6 39 36 61q21 15 45 15q11 0 21 -2q39 -6 61 -35q15 -23 15 -47
q0 -11 -2 -21zM1198 766h-10v307h10v-307zM823 1382l-53 -147h-8l-57 149l-58 -149h-8l-41 156v2q0 2 2 4h2q2 0 4 -2l37 -144l57 148h9l57 -150l49 137zM1176 881v-13q0 -32 -21 -59q-27 -33 -68 -33h-12q-33 0 -59 23q-33 24 -33 65v13q0 32 23 61q24 31 65 31h12
q33 0 62 -21q31 -26 31 -67zM948 946l-4 -8q-8 6 -26 23q-19 14 -33 14q-21 0 -39.5 -12.5t-36.5 -24.5l-4 8q8 4 35 23q22 14 37 14h8q18 0 33 -12q24 -21 30 -25zM467 1403h-139v10h139v-10zM399 1262h-10v245h10v-245zM772 799h-10v188h10v-188zM1544 63l-8 -4l-82 148
l8 4zM684 983l-4 -184h-8l4 184h8zM1683 201l-245 -291h-2q-2 -2 -4 0q-5 2 -5 4t3 4l245 291h2q2 2 6 0q3 0 3 -2t-3 -6zM672 881q-6 -39 -35 -60q-23 -16 -47 -16q-10 0 -21 2q-39 6 -59 37q-16 20 -16 45q0 10 2 20q6 39 36 62q21 14 46 14q10 0 20 -2q39 -6 61 -35
q15 -22 15 -47q0 -10 -2 -20zM1376 47v-2q0 -2 -2 -4h-2q-2 0 -4 2q-2 10 -2 25q-2 14 -2 22q2 43 2 64q0 26 -6 41q-8 14 -33 14q-16 0 -33 -14q-16 -15 -30 -27v0q-2 0 -4 2q-3 0 -3 2t3 4q22 19 30 27q17 14 37 14h6q23 0 31 -14q6 -19 6 -62v-49q0 -26 6 -45zM1118 483
l-192 -221h-2q-2 -2 -4 0q-5 2 -5 4t3 4l192 222h2q2 2 6 0q2 0 2 -3q0 -2 -2 -6zM1245 47v-2q0 -2 -2 -4h-2q-2 0 -4 2q-2 10 -2 25q-2 14 -2 22q2 43 2 64q0 26 -6 41q-8 14 -33 14q-16 0 -33 -14q-16 -15 -30 -27v0q-3 0 -5 2q-2 0 -2 2t2 4q23 19 31 27q17 14 37 14h6
q23 0 31 -14q6 -19 6 -62v-49q0 -26 6 -45zM739 492h-10v131h10v-131zM385 1094v-2q2 -2 0 -5.5t-4 -3.5t-4 2q-4 5 -47 58q-25 31 -56 31q-36 0 -63 -33q-16 -21 -39 -74q-12 -33 -16 -53q-6 -21 -6 -45q0 -62 47 -101q24 -20 43 -28q18 -11 43 -11q14 0 30 7q17 6 29 27.5
t27 47.5h2q2 2 4 0q0 -2 2 -4q-17 -30 -25 -45q-14 -26 -33 -35q-18 -8 -40 -8q-25 0 -43 10q-21 9 -48 31q-47 41 -47 111q0 49 23 100q26 70 51 91.5t59 21.5q39 0 70 -41t41 -49zM1112 37h-10v168h10v-168zM842 430q0 -24 -17 -41q-16 -16 -41 -16q-22 0 -39 16
q-16 17 -16 41q0 23 16 39q17 16 39 16q23 0 41 -14q17 -16 17 -41zM1032 47v-2q0 -2 -2 -4h-2q-2 0 -4 2q-2 10 -2 25q-2 14 -2 22q2 43 2 64q0 26 -6 41q-8 14 -33 14q-16 0 -33 -14q-16 -15 -30 -27v0q-2 0 -5 2q-2 0 -2 2t2 4q23 19 31 27q17 14 37 14h6q23 0 31 -14
q6 -19 6 -62v-49q0 -26 6 -45zM901 51q-2 -2 -4 -2q-6 0 -8 8q-4 9 -4 37q0 12 2 37q2 23 2 31q0 51 -37 51q-16 0 -33 -14q-16 -15 -31 -27v0q-2 0 -4 2q-2 0 -2 2t2 4q23 19 31 27q16 14 37 14h6q23 0 31 -14q6 -19 6 -62v-49q0 -26 6 -45zM760 53h-10v148h10v-148z
M471 403h-315v11h315v-11zM627 88q-29 -37 -70 -37q-27 0 -49 17q-37 28 -37 69q0 27 16 49q29 37 70 37q27 0 49 -16q37 -29 37 -70q0 -26 -16 -49zM330 74h-11v311h11v-311zM1008 379l-9 -4l-61 106l8 4zM2023 860v12q0 27 -14 50q-18 26 -51 32h-12q-25 0 -48 -14
q-28 -18 -34 -51v-12q0 -25 14 -48q18 -28 51 -34h13q26 0 49 14q26 18 32 51zM1122 1290v13q0 30 -14 53q-18 28 -53 35h-13q-30 0 -53 -15q-28 -18 -35 -53v-12q0 -31 15 -54q18 -28 53 -34h12q31 0 53 14q29 18 35 53zM1384 864v13q0 26 -14 49q-18 26 -51 32h-12
q-25 0 -47 -14q-29 -18 -35 -51v-12q0 -25 14 -47q18 -29 51 -35h13q26 0 49 14q26 18 32 51zM1167 881q-2 34 -28 57q-29 23 -68 23q-35 -3 -57 -29q-23 -29 -23 -68q2 -35 31 -57q27 -23 65 -23q35 2 58 31q22 27 22 66zM664 881v12q0 27 -15 49q-18 27 -51 33h-12
q-25 0 -47 -14q-29 -19 -35 -52v-12q0 -25 14 -47q19 -29 51 -35h13q26 0 49 14q26 19 33 52zM831 430q0 21 -12 33t-35 12q-45 0 -45 -45q0 -47 45 -47q21 0 35 14q12 13 12 33zM618 92q15 21 15 45q0 39 -31 62q-20 14 -45 14q-39 0 -61 -31q-15 -20 -15 -45q0 -39 31 -61
q20 -15 45 -15q39 0 61 31zM1819 999q-19 0 -19 19q0 18 19 18q18 0 18 -18q0 -19 -18 -19z" />
    <glyph glyph-name="one" unicode="1" 
 />
    <glyph glyph-name="two" unicode="2" 
 />
    <glyph glyph-name="three" unicode="3" 
 />
    <glyph glyph-name="four" unicode="4" 
 />
    <glyph glyph-name="five" unicode="5" 
 />
    <glyph glyph-name="six" unicode="6" 
 />
    <glyph glyph-name="seven" unicode="7" 
 />
    <glyph glyph-name="eight" unicode="8" 
 />
    <glyph glyph-name="nine" unicode="9" 
 />
    <glyph glyph-name="zero" unicode="0" 
 />
    <glyph glyph-name="hyphen" unicode="-" horiz-adv-x="1155" 
d="M-33 713h1221v-74h-1221v74z" />
    <glyph glyph-name="equal" unicode="=" 
 />
    <glyph glyph-name="q" unicode="q" horiz-adv-x="1286" 
d="M8 1630h828v-614l-361 -254v-189h336l385 -565h-909l-287 737l385 304z" />
    <glyph glyph-name="w" unicode="w" 
 />
    <glyph glyph-name="e" unicode="e" horiz-adv-x="1294" 
d="M483 1425l-180 66q-94 -55 -139 -127q-55 -92 -74 -266q-2 -17 -2 -33v-27q0 -164 86 -370q29 -68 88 -176h926l-320 -476h-450q-6 0 -107 160q-123 195 -200 381q-111 264 -111 455q0 63 8 110q37 213 137 340q127 160 338 160v-197z" />
    <glyph glyph-name="r" unicode="r" horiz-adv-x="1835" 
d="M1720 1622h-1704l295 -999h-295l369 -615h459l-426 1385h1302v229z" />
    <glyph glyph-name="t" unicode="t" horiz-adv-x="1483" 
d="M1401 8h-1065l459 516v336l-205 -139v696h-352v-483l-238 303l8 385h803v-483l205 123v-902l385 -172v-180z" />
    <glyph glyph-name="y" unicode="y" 
 />
    <glyph glyph-name="u" unicode="u" horiz-adv-x="1196" 
d="M1024 500l-311 -492h-484v762h-229l549 647h-541v221h803v-671h-270v-254h196v-213h287zM999 1319q43 0 74 -29q29 -30 29 -73t-29 -72q-31 -31 -74 -31t-71 31q-31 29 -31 72t31 73q28 29 71 29z" />
    <glyph glyph-name="i" unicode="i" horiz-adv-x="1327" 
d="M16 1630l-8 -1614h1229l-172 303l-328 -163h-524v1089l360 385h-557z" />
    <glyph glyph-name="o" unicode="o" horiz-adv-x="1147" 
d="M1032 582l-393 -574h-295l-344 574l287 245h278v-245h467z" />
    <glyph glyph-name="p" unicode="p" horiz-adv-x="1040" 
d="M0 786l451 361v221l344 -393l-279 -254l148 -303h294v-410h-598z" />
    <glyph glyph-name="bracketleft" unicode="[" horiz-adv-x="1288" 
d="M1221 0h-1065v721h-156v459h172v204l123 17v237h246v-376h-164v-836h844v-426z" />
    <glyph glyph-name="bracketright" unicode="]" horiz-adv-x="975" 
d="M934 1270h-197v-156h-499v-1106h-238v1614h737v-147h197v-205z" />
    <glyph glyph-name="backslash" unicode="\" 
 />
    <glyph glyph-name="a" unicode="a" horiz-adv-x="1483" 
d="M1401 1442h-598l213 -221v-639h-205v-574h-803l-8 385l238 303v-483h352v541h205v434l-459 434h1065v-180z" />
    <glyph glyph-name="s" unicode="s" horiz-adv-x="1507" 
d="M1417 0h-188v516h188v-516zM1081 0h-786l-295 1106l360 524l172 -147l-294 -402l188 -565h655v-516z" />
    <glyph glyph-name="d" unicode="d" horiz-adv-x="1524" 
d="M10 598l10 -582l195 -8zM207 614l213 -606h803l-279 590v492l475 335v205h-1179v-180l434 -352v-484h-467z" />
    <glyph glyph-name="f" unicode="f" horiz-adv-x="1573" 
d="M1466 590l-434 -582h-1032l401 590h287q92 109 129 217q35 109 35 258q0 111 -78 254q-55 103 -145 213q-74 90 -80 90h409q80 -119 119 -192q119 -224 119 -373q0 -156 -22 -252q-23 -98 -93 -223h385z" />
    <glyph glyph-name="g" unicode="g" horiz-adv-x="778" 
d="M483 614h-172l90 213zM705 8h-689l246 500h254z" />
    <glyph glyph-name="h" unicode="h" horiz-adv-x="2048" 
d="M1991 1630h-1983l328 -450v-492h-139v-311l-197 -369h926l-164 369h-279v901l-139 188h1647v164z" />
    <glyph glyph-name="j" unicode="j" horiz-adv-x="967" 
d="M8 1630l303 -401v-680h-295l295 -524h254l320 524h-312v590l-81 344l188 147h-672z" />
    <glyph glyph-name="k" unicode="k" horiz-adv-x="877" 
d="M778 8h-770l279 516h172l114 254l-213 361h-360l475 483v-279l303 -516v-819z" />
    <glyph glyph-name="l" unicode="l" horiz-adv-x="803" 
d="M8 549h246v500l213 278l-336 311h549v-508l-164 -163v-951h-270z" />
    <glyph glyph-name="semicolon" unicode=";" 
 />
    <glyph glyph-name="quotesingle" unicode="'" 
 />
    <glyph glyph-name="z" unicode="z" 
 />
    <glyph glyph-name="x" unicode="x" 
 />
    <glyph glyph-name="c" unicode="c" horiz-adv-x="1249" 
d="M1171 1638l-163 -680h-738v-434h205l451 -524h-918l-8 1130h598l434 508h139z" />
    <glyph glyph-name="v" unicode="v" horiz-adv-x="1376" 
d="M1311 1630l-148 -270v-672h-237v-680h-910l222 426h426v508h245l-254 410h-655l287 278h1024zM573 508q-30 -33 -79 -33q-43 0 -74 31q-31 29 -31 78q0 43 31 73q29 31 78 31q43 0 73 -29q31 -30 31 -79q0 -43 -29 -72zM324 651q22 -24 22 -65q0 -51 -39 -82
q-31 -25 -71 -25q-54 0 -84 41q-19 25 -19 60q0 53 43 88q25 22 66 22q51 0 82 -39z" />
    <glyph glyph-name="b" unicode="b" horiz-adv-x="881" 
d="M811 8h-262l-541 467h803v-467z" />
    <glyph glyph-name="n" unicode="n" horiz-adv-x="1278" 
d="M0 549l1180 1081v-270l-762 -721v-221h311l-319 -418z" />
    <glyph glyph-name="m" unicode="m" horiz-adv-x="1376" 
d="M16 1638h557l287 -647v-336h410l-451 -655h-287l-401 655h418v312l-180 458h-353v213z" />
    <glyph glyph-name="comma" unicode="," horiz-adv-x="311" 
d="M246 66h-164v188h164v-188zM231 84v154h-135v-154h135z" />
    <glyph glyph-name="period" unicode="." horiz-adv-x="266" 
d="M53 545q-37 35 -37 84q0 41 27 69q35 37 82 37q37 0 72 -28q34 -31 34 -80q0 -43 -26 -72q-35 -37 -84 -37q-37 0 -68 27z" />
    <glyph glyph-name="slash" unicode="/" horiz-adv-x="1393" 
d="M1339 1401h-249v147h-369v-131h-377v221h844v-139h151v-98zM958 1356q-6 -31 -26 -47q-23 -17 -55 -17q-15 0 -21 2q-31 9 -49 35q-14 21 -14 43q0 8 2 17q6 34 34 53q21 14 48 14q8 0 16 -2q33 -6 53 -35q15 -20 15 -43q0 -10 -3 -20zM1335 922h-991v176h-156v-819h140
v-271h-320v1348h705v-160h139v-106h377v258h106v-426zM590 8h-131v271h131v-271z" />
    <glyph glyph-name="space" unicode=" " 
 />
    <glyph glyph-name="asciitilde" unicode="~" 
 />
    <glyph glyph-name="exclam" unicode="!" horiz-adv-x="1810" 
d="M1446 627q0 -285 -219 -480q-219 -194 -516 -194q-285 0 -480 219q-194 219 -194 516q0 285 219 475q219 191 516 191q285 0 479 -215q195 -215 195 -512zM1397 631q0 274 -178 471q-185 203 -451 203q-276 0 -479 -177.5t-203 -443.5q0 -274 182 -477q181 -205 447 -205
q274 0 479 182q203 181 203 447zM991 723q2 -6 201 -8q197 -2 244 -2h82h69h58h47h37h30h23h51q18 0 27 2q8 -8 10 -13q10 -14 10 -28q0 -19 -20 -33h-269h-374q-216 -2 -218 -8q-8 -74 -59 -133q-53 -60 -129 -80q-27 -8 -63 -8q-86 0 -152 53q-68 51 -88 135q-6 31 -6 59
q0 82 49 148q47 65 129 88q37 10 70 10q84 0 153 -49q68 -51 88 -133z" />
    <glyph glyph-name="at" unicode="@" horiz-adv-x="1810" 
d="M1782 688q0 -299 -193 -516q-194 -219 -481 -219q-299 0 -514 190q-221 197 -221 484q0 297 194 512q195 215 480 215q299 0 512 -187q223 -194 223 -479zM1614 647q-27 -215 -197 -375q-170 -159 -368 -159q-88 0 -164 34q-140 64 -236 242q-80 148 -80 248h-145h-162
h-201h-106q-18 10 -18 31q0 14 10 30q2 4 12 13h113q80 -2 188 -2h59h50h41h34h29q105 0 105 10q0 186 170 323q157 127 329 127q53 0 94 -14q172 -61 310 -203q135 -141 135 -276q0 -19 -2 -29zM1733 684q0 266 -203 443.5t-479 177.5q-267 0 -447 -199
q-182 -201 -182 -475q0 -269 203 -449q200 -180 479 -180q268 0 448 203q181 201 181 479z" />
    <glyph glyph-name="numbersign" unicode="#" horiz-adv-x="1647" 
d="M1208 1503q-14 -49 -53 -82q-41 -32 -82 -32q-8 0 -24 4q-64 24 -99 94q-37 67 -37 131q33 -4 54 -8q59 -13 102 -29q43 -18 92 -43q47 -25 47 -35v0zM1606 811q0 -160 -66 -301q-65 -141 -180 -256v1122q115 -114 180 -258q66 -145 66 -307zM688 1634q-16 -96 -47 -147
q-33 -53 -80 -82q-16 -10 -35 -10q-26 0 -57 19.5t-68 55.5v3q0 8 33 40q39 37 76 61.5t113 45.5q22 6 65 14zM1270 164q-43 69 -99 119q-71 63 -133 63q-65 0 -112 -72q-56 -84 -82 -266v1630q45 -155 108 -229q56 -66 125 -66q53 0 105 41q49 39 88 107v-1327zM733 1638
v-1618q-37 187 -80 261q-45 73 -102 73q-43 0 -105 -47l-102 -86v1225q92 -94 170 -94q74 0 133 84q49 71 86 202zM1221 131v0q0 -10 -60 -47q-28 -16 -61 -37q-35 -22 -117 -33q-27 -2 -78 -6q8 82 33 144q35 86 94 122q10 7 19 7q36 0 90 -48q51 -49 80 -102zM287 258
q-97 90 -183 262q-92 182 -92 307q0 127 74 301q86 201 201 256v-1126zM676 37q-41 8 -64 12q-71 17 -104 37q-41 27 -80 59q-39 35 -39 45v3q45 51 76 75q41 33 72 33q12 0 24 -6q60 -37 90 -121q25 -65 25 -137z" />
    <glyph glyph-name="dollar" unicode="$" horiz-adv-x="1532" 
d="M1475 811q0 -139 -68 -225q-43 -56 -190 -164l-3 790q125 -82 189 -172q72 -102 72 -229zM1153 156q-12 18 -68 131q-36 75 -59 75q-27 0 -49 -69q-25 -70 -51 -252v1577q51 -176 75 -236q25 -59 50 -59q18 0 51 58.5t51 88.5v-1314zM848 319q0 -12 -39 -28
q-41 -17 -76 -17q-41 0 -88 16.5t-47 28.5v1106q0 11 47 27q47 14 84 14q31 0 78 -20q14 -6 41 -21v-1106zM545 29q-39 194 -58.5 257.5t-42.5 63.5q-12 0 -34 -33q-62 -92 -95 -116v1249q99 -104 140 -104q28 0 47 69q20 92 43 184v-1570zM258 1249v-798q-129 90 -178 157
q-72 99 -72 248q0 150 53 227q43 64 197 166z" />
    <glyph glyph-name="percent" unicode="%" horiz-adv-x="2662" 
d="M1026 1630q18 0 25 -12q32 -57 67 -113q84 -131 180 -237q129 -146 246 -205q60 -31 115 -31q70 0 172 64q65 41 131 82q16 2 20 2l582 -172q23 -7 23 -25t-25 -25l-403 -116l4 -35l405 -119q23 -6 23 -24q0 -19 -25 -25l-579 -107l-17 3q-127 75 -198 75q-46 0 -89 -22
q-45 -25 -116 -78q-72 -55 -203 -182q-113 -109 -215 -213q-51 -54 -100 -105q-7 -10 -23 -10q-299 0 -506 135q-223 146 -223 381q-135 16 -205 92q-72 74 -72 193q0 127 68 205q76 86 209 106q0 234 223 381q209 137 506 137zM1014 1579q-279 0 -465 -127
q-201 -135 -201 -362q0 -25 -24 -25q-86 -14 -127 -37q-127 -67 -127 -223q0 -150 125 -209q41 -18 127 -31q26 0 26 -24q0 -226 203 -363q188 -129 465 -129q49 66 217 236q190 192 291 264q80 59 139 86q57 27 111 27q77 0 215 -78l465 86l-320 92q-14 2 -18 20l-11 74v6
q0 17 19 23l340 98l-488 143q-69 -41 -137 -82q-110 -63 -184 -63q-58 0 -135 37q-125 63 -256 210.5t-250 350.5zM991 1458q109 -166 248 -307q129 -131 244 -184q-164 16 -299 30q-137 15 -367 43l-61 168q-54 49 -78 74l-70 78q78 39 185 70q104 28 198 28zM575 1331
l144 -147l49 -144l-119 -4l-155 -69l-33 -62l8 -69l-57 24l-29 58l-70 16l37 -111l-41 -127l62 13l32 77l66 25l-8 -78l33 -74l151 -106l115 -16q244 24 391 35.5t326 25.5q-99 -63 -265 -207q-157 -137 -198 -186q-248 0 -420 104q-182 111 -182 293q0 19 -23 19
q-76 8 -113 24q-114 49 -114 172t114 178q37 17 115 31q29 0 29 31q0 96 41 164q39 67 114 110zM649 909l25 -32l536 -58l-516 -74l-32 -24l-78 24l-29 58l80 -41l61 45v24l-59 41l-86 -32l41 49zM657 975l816 -62l77 -61v-70l-82 -90l-806 -65l-136 73l-28 45l24 58l49 -90
l99 -54l28 54l803 90v33l-807 69l-32 41l-91 -33l-49 -65l-24 53l32 37zM1571 950q51 -14 112 -14q29 0 64 6q-4 -16 -6 -33q-17 -37 -35 -49v-82q27 -14 45 -43q2 -10 4 -18q-43 0 -92 -17q-51 -16 -100 -41q12 29 24 54q10 24 37 69v78q-22 31 -33 49q-10 19 -20 41z
M1993 1012l-168 -140v-69l164 -139l-148 45l-90 94v49l86 111zM2050 1044l307 -61l-274 -57l-70 -90l58 -95l253 -61l-290 -33q0 70 -45 123q-23 27 -76 51q-17 8 -51 19q34 10 53 16q55 23 84 54.5t41 60.5q10 26 10 73zM1012 500q-54 -21 -54 -82q0 -17 7 -29
q18 -43 69 -43q17 0 35 6q51 21 51 74q0 12 -6 29q-20 51 -74 51q-12 0 -28 -6z" />
    <glyph glyph-name="asciicircum" unicode="^" 
 />
    <glyph glyph-name="ampersand" unicode="&#x26;" horiz-adv-x="1483" 
d="M864 1270h-274v225h274v-225zM1384 860l-487 -717l-143 738v188q37 -59 73 -119l54 99v73h28v-73q-20 -37 -30 -56q-27 -49 -27 -57v-2q12 -8 51 -23q37 -14 43 -14l86 737l21 -696l192 135l82 385zM709 877l-144 -738l-491 713l82 614l61 -397l193 -135l20 696l86 -737
q8 0 43 13.5t51 23.5v2q2 10 -24 57q-11 19 -33 55v74h29v-74l53 -98q14 15 29 43q32 64 45 76v-188zM954 0h-41l-24 41h-144l-20 98l-16 -98h-140l-24 -41h-45l28 86h74l115 688h33l110 -672h70z" />
    <glyph glyph-name="asterisk" unicode="*" 
 />
    <glyph glyph-name="parenleft" unicode="(" 
 />
    <glyph glyph-name="parenright" unicode=")" 
 />
    <glyph glyph-name="underscore" unicode="_" 
 />
    <glyph glyph-name="plus" unicode="+" 
 />
    <glyph glyph-name="Q" unicode="Q" horiz-adv-x="1294" 
d="M1180 1294h-459v-409h-459v-451h787v-418h-1041v1082h402v524h770v-328zM246 66v188h-164v-188h164z" />
    <glyph glyph-name="W" unicode="W" horiz-adv-x="1106" 
d="M1049 1491h-443v-1032h197v-459h-590v459h180v860h-385v311h1041v-139zM459 57v189h-164v-189h164z" />
    <glyph glyph-name="E" unicode="E" horiz-adv-x="1262" 
d="M0 442v-442h1147v451h-434v1163h-230v-1172h-483z" />
    <glyph glyph-name="R" unicode="R" horiz-adv-x="1122" 
d="M1008 0h-1000v532h254v-262h483v836h-737v516h1000v-1622z" />
    <glyph glyph-name="T" unicode="T" horiz-adv-x="934" 
d="M0 1638h369v-1171h426v-467h-639v893h-156v745z" />
    <glyph glyph-name="Y" unicode="Y" horiz-adv-x="877" 
d="M844 1221h-189l-4 -1221h-643v180h271v213h221l-4 836h-189v409h533z" />
    <glyph glyph-name="U" unicode="U" horiz-adv-x="766" 
d="M645 0h-639v893v737h131v-459h123v-704h385v-467zM246 66v188h-164v-188h164z" />
    <glyph glyph-name="I" unicode="I" horiz-adv-x="803" 
d="M721 0h-442v418h237v590h-246v622h222v-442h229v-1188zM139 8h-131v402h131v-402z" />
    <glyph glyph-name="O" unicode="O" horiz-adv-x="1278" 
d="M1155 958h-434v-434h205v-508h-901v500h434v868h-451v238h729v-385h418v-279zM688 66v188h-164v-188h164zM467 66v188h-164v-188h164zM246 66v188h-164v-188h164z" />
    <glyph glyph-name="P" unicode="P" horiz-adv-x="967" 
d="M819 0h-434v967h-385v663h639v-1253h180v-377z" />
    <glyph glyph-name="braceleft" unicode="{" horiz-adv-x="1212" 
d="M1163 1450h-442v-975h254v-467h-975v451h221v844h221v327h721v-180zM492 66v188h-164v-188h164zM246 66v188h-164v-188h164z" />
    <glyph glyph-name="braceright" unicode="}" horiz-adv-x="1081" 
d="M1028 1409h-508v-582h-311v-335h147v-492h-352v1032h295v598h729v-221z" />
    <glyph glyph-name="bar" unicode="|" 
 />
    <glyph glyph-name="A" unicode="A" horiz-adv-x="922" 
d="M852 1507h-508v-1040h188v-467h-532v467h188v1171h664v-131zM246 66v188h-164v-188h164z" />
    <glyph glyph-name="S" unicode="S" horiz-adv-x="1434" 
d="M1335 1409h-508v-582h-311v-335h508v-492h-1024v344h311v688h295v598h729v-221z" />
    <glyph glyph-name="D" unicode="D" horiz-adv-x="1479" 
d="M1409 0h-1081v459h409v860h-385v311h1041v-139h-443v-1032h459v-459zM188 16h-188v443h188v-443zM819 74v188h-164v-188h164zM565 66v188h-164v-188h164z" />
    <glyph glyph-name="F" unicode="F" horiz-adv-x="1130" 
d="M0 1638v-557h205v-1073h852v410h-598v835h-230v385h-229z" />
    <glyph glyph-name="G" unicode="G" horiz-adv-x="1638" 
d="M1532 0h-827v459h401v663h-221v279h-877v237h1344v-1187h180v-451zM1475 57v189h-164v-189h164zM1229 57v189h-164v-189h164z" />
    <glyph glyph-name="H" unicode="H" horiz-adv-x="1098" 
d="M16 1630h975v-393h-336v164h-434v-1041h320v-360h-525v1630z" />
    <glyph glyph-name="J" unicode="J" horiz-adv-x="1458" 
d="M1335 8v410h-295v368h-335v549h344v287h-1033v-1614h1319zM246 66h-164v188h164v-188z" />
    <glyph glyph-name="K" unicode="K" horiz-adv-x="762" 
d="M35 418v-418h637v1188h-330v442h-319v-622h354v-590h-342zM598 57h-164v189h164v-189zM377 57h-164v189h164v-189z" />
    <glyph glyph-name="L" unicode="L" horiz-adv-x="625" 
d="M569 0h-532v410h188v1097h-221v131h377v-1138h188v-500z" />
    <glyph glyph-name="colon" unicode=":" 
 />
    <glyph glyph-name="quotedbl" unicode="&#x22;" 
 />
    <glyph glyph-name="Z" unicode="Z" horiz-adv-x="1245" 
d="M1196 819h-180v-819l-1012 -2v131h221v1098h-188v409h532l4 -407h-188v-557h401v393h148v573h262v-819z" />
    <glyph glyph-name="X" unicode="X" horiz-adv-x="625" 
d="M539 0h-533l4 492h189v1138h155l-4 -1130h189v-500z" />
    <glyph glyph-name="C" unicode="C" horiz-adv-x="1098" 
d="M803 1630v-622h-795v-1000h721v475h-393v336h655v811h-188zM246 66h-164v188h164v-188z" />
    <glyph glyph-name="V" unicode="V" horiz-adv-x="1063" 
d="M981 0h-188v770h-779v860h385v-442h-155v-246h737v-942z" />
    <glyph glyph-name="B" unicode="B" horiz-adv-x="1442" 
d="M1360 8h-1073v418h884v385h-385v238h-90v450h-450v-139h-246v278h967v-622h393v-1008zM139 8l-131 -16v418h131v-402z" />
    <glyph glyph-name="N" unicode="N" horiz-adv-x="1507" 
d="M1393 8h-852v426h614v754h-1147v434h369v-238h1016v-1376z" />
    <glyph glyph-name="M" unicode="M" horiz-adv-x="926" 
d="M786 8h-786v459h319v1163h238v-852h229v-770zM500 74v188h-164v-188h164zM246 66v188h-164v-188h164z" />
    <glyph glyph-name="less" unicode="&#x3c;" horiz-adv-x="639" 
d="M573 0h-163v868h-402v762h344v-598h221v-1032z" />
    <glyph glyph-name="greater" unicode="&#x3e;" horiz-adv-x="877" 
d="M823 8h-635v1221h-188v409h541l-4 -417h-189v-1000h164v303h311v-516z" />
    <glyph glyph-name="question" unicode="?" 
 />
    <glyph glyph-name="nonbreakingspace" unicode="&#xa0;" horiz-adv-x="569" 
 />
    <glyph glyph-name="paragraph" unicode="&#xb6;" horiz-adv-x="1100" 
d="M406 -408v1047q-189 8 -295 121q-111 110 -111 284q0 193 123 308q119 114 350 114h635v-172h-145v-1702h-170v1702h-224v-1702h-163z" />
    <glyph glyph-name="currency" unicode="&#xa4;" horiz-adv-x="1139" 
d="M213 961l-139 137l114 119l140 -140q106 72 237 72t238 -72l137 140l117 -119l-139 -137q71 -109 71 -236q0 -125 -71 -236l139 -135l-117 -118l-137 141q-107 -74 -238 -74t-237 74l-140 -141l-114 118l139 135q-72 111 -72 236q0 127 72 236zM305 725q0 -107 76 -182.5
t182 -75.5q109 0 184.5 75.5t75.5 182.5q0 109 -75 184q-76 76 -185 76q-106 0 -182 -76q-76 -75 -76 -184z" />
  </font>
</defs>
</svg>
